<svg width="24" height="24" viewBox="0 0 24 24" fill="none" xmlns="http://www.w3.org/2000/svg">
<path fill-rule="evenodd" clip-rule="evenodd" d="M4 7C4 4.79 7.58 3 12 3C16.42 3 20 4.79 20 7V13.2673C19.0306 12.475 19.0009 12.4978 17.7116 13.4891C17.671 13.5204 17.6291 13.5526 17.5858 13.5858L15.5622 15.6094C14.4634 15.8631 13.2576 16 12 16C9.72 16 7.61 15.55 6 14.77V17C6 17.5 8.13 19 12 19C12.6051 19 13.1677 18.9633 13.6863 18.8995L16.0001 20.464C16.0001 20.464 13.456 21 12 21C7.59 21 4 19.21 4 17V7ZM12 14C14.42 14 16.7 13.4 18 12.45V9.64C16.53 10.47 14.39 11 12 11C9.61 11 7.47 10.47 6 9.64V12.45C7.3 13.4 9.58 14 12 14ZM6 7C6 7.5 8.13 9 12 9C15.87 9 18 7.5 18 7C18 6.5 15.87 5 12 5C8.13 5 6 6.5 6 7Z" fill="#526069"/>
<path d="M20 18H22L19 15L16 18H18V22H20V18Z" fill="#526069"/>
</svg>
