<svg width="24" height="24" viewBox="0 0 24 24" fill="none" xmlns="http://www.w3.org/2000/svg">
<path fill-rule="evenodd" clip-rule="evenodd" d="M10 2C5.58 2 2 3.79 2 6V16C2 18.21 5.59 20 10 20C10.2246 20 10.4471 19.9954 10.6671 19.9862C10.3752 19.3683 10.1711 18.7008 10.0709 17.9998L10 18C6.13 18 4 16.5 4 16V13.77C5.61 14.55 7.72 15 10 15C10.0972 15 10.1941 14.9992 10.2906 14.9976C10.5125 14.253 10.8549 13.5605 11.2952 12.9425C10.8714 12.9803 10.438 13 10 13C7.58 13 5.3 12.4 4 11.45V8.64C5.47 9.47 7.61 10 10 10C12.39 10 14.53 9.47 16 8.64V9.07089C16.3266 9.02417 16.6605 9 17 9C17.3395 9 17.6734 9.02417 18 9.07089V6C18 3.79 14.42 2 10 2ZM10 8C6.13 8 4 6.5 4 6C4 5.5 6.13 4 10 4C13.87 4 16 5.5 16 6C16 6.5 13.87 8 10 8Z" fill="#526069"/>
<path d="M16 16V11H18V16H16Z" fill="#526069"/>
<path d="M15 12.416C13.2341 13.1876 12 14.9497 12 17C12 19.7614 14.2386 22 17 22C19.7614 22 22 19.7614 22 17C22 14.9497 20.7659 13.1876 19 12.416V14.7639C19.6138 15.3132 20 16.1115 20 17C20 18.6569 18.6569 20 17 20C15.3431 20 14 18.6569 14 17C14 16.1115 14.3863 15.3132 15 14.7639V12.416Z" fill="#526069"/>
</svg>
