<svg width="24" height="24" viewBox="0 0 24 24" fill="none" xmlns="http://www.w3.org/2000/svg">
<path d="M2.38999 1.73L1.10999 3L4.20999 6.1C4.07999 6.39 3.99999 6.69 3.99999 7V17C3.99999 19.21 7.58999 21 12 21C14.3 21 16.38 20.5 17.84 19.73L20.84 22.73L22.11 21.46L2.38999 1.73ZM5.99999 9.64C6.75999 10.07 7.69999 10.42 8.75999 10.65L12.11 14C12.07 14 12.04 14 12 14C9.57999 14 7.29999 13.4 5.99999 12.45V9.64ZM12 19C8.12999 19 5.99999 17.5 5.99999 17V14.77C7.60999 15.55 9.71999 16 12 16C12.68 16 13.34 15.95 14 15.87L16.34 18.23C15.33 18.65 13.87 19 12 19ZM8.63999 5.44L7.05999 3.86C8.41999 3.33 10.13 3 12 3C16.42 3 20 4.79 20 7V16.8L18 14.8V14.77V14.78L16.45 13.25C17.05 13.03 17.58 12.76 18 12.45V9.64C16.97 10.22 15.61 10.65 14.06 10.86L12.19 9C15.94 8.94 18 7.5 18 7C18 6.5 15.87 5 12 5C10.66 5 9.53999 5.18 8.63999 5.44Z" fill="#526069"/>
</svg>
