<svg width="24" height="24" viewBox="0 0 24 24" fill="none" xmlns="http://www.w3.org/2000/svg">
<path fill-rule="evenodd" clip-rule="evenodd" d="M12 3C7.58 3 4 4.79 4 7V17C4 19.21 7.59 21 12 21C12.6903 21 13.3605 20.9561 14 20.8737V18.8569C13.3969 18.9467 12.7293 19 12 19C8.13 19 6 17.5 6 17V14.77C7.61 15.55 9.72 16 12 16C12.685 16 13.3546 15.9594 14 15.8814V14C14 13.9534 14.0016 13.9071 14.0048 13.8611C13.3605 13.9518 12.6859 14 12 14C9.58 14 7.3 13.4 6 12.45V9.64C7.47 10.47 9.61 11 12 11C14.39 11 16.53 10.47 18 9.64V12.45C17.8991 12.5237 17.7924 12.5953 17.6801 12.6647L20 14.0179V7C20 4.79 16.42 3 12 3ZM12 9C8.13 9 6 7.5 6 7C6 6.5 8.13 5 12 5C15.87 5 18 6.5 18 7C18 7.5 15.87 9 12 9Z" fill="#526069"/>
<path d="M16 21L22 17.5L16 14V21Z" fill="#526069"/>
</svg>
