<svg width="24" height="24" viewBox="0 0 24 24" fill="none" xmlns="http://www.w3.org/2000/svg">
<path fill-rule="evenodd" clip-rule="evenodd" d="M12 3C7.58 3 4 4.79 4 7V17C4 18.7685 6.29888 20.268 9.47722 20.7966C9.17122 20.4372 9 19.9783 9 19.5C9 19.2222 9.05777 18.9509 9.16615 18.7019C7.10389 18.2382 6 17.36 6 17V14.77C7.60126 15.5458 9.69709 15.9951 11.9629 16L13.683 14.4948C13.7823 14.408 13.8885 14.3322 14 14.2679V14C14 13.9533 14.0016 13.907 14.0048 13.8611C13.3605 13.9518 12.6859 14 12 14C9.58 14 7.3 13.4 6 12.45V9.64C7.47 10.47 9.61 11 12 11C14.39 11 16.53 10.47 18 9.64L18.4566 10.0752C18.9767 9.92823 19.534 9.99879 20 10.2679V7C20 4.79 16.42 3 12 3ZM12 9C8.13 9 6 7.5 6 7C6 6.5 8.13 5 12 5C15.87 5 18 6.5 18 7C18 7.5 15.87 9 12 9Z" fill="#526069"/>
<path d="M23 15.5L19 12V14H16V17H19V19L23 15.5Z" fill="#526069"/>
<path d="M11 19.5L15 16V18H18V21H15V23L11 19.5Z" fill="#526069"/>
</svg>
