<svg width="24" height="24" viewBox="0 0 24 24" fill="none" xmlns="http://www.w3.org/2000/svg">
<path d="M13 12.6L19 9.2V11H21V7.5C21 7.1 20.8 6.8 20.5 6.6L12.6 2.2C12.4 2.1 12.2 2 12 2C11.8 2 11.6 2.1 11.4 2.2L3.5 6.6C3.2 6.8 3 7.1 3 7.5V16.5C3 16.9 3.2 17.2 3.5 17.4L11.4 21.8C11.6 21.9 11.8 22 12 22C12.2 22 12.4 21.9 12.6 21.8L13 21.5C13 21.5 13 15.5512 13 12.6ZM12 4.2L18 7.5L16 8.6L10.1 5.2L12 4.2ZM11 19.3L5 15.9V9.2L11 12.6V19.3ZM12 10.8L6 7.5L8 6.3L14 9.8L12 10.8Z" fill="#FA4616"/>
<path fill-rule="evenodd" clip-rule="evenodd" d="M19 17.8293C20.1652 17.4175 21 16.3062 21 15C21 13.3431 19.6569 12 18 12C16.3431 12 15 13.3431 15 15C15 16.3062 15.8348 17.4175 17 17.8293V22H19V21H21V19H19V17.8293ZM18 16C18.5523 16 19 15.5523 19 15C19 14.4477 18.5523 14 18 14C17.4477 14 17 14.4477 17 15C17 15.5523 17.4477 16 18 16Z" fill="#526069"/>
</svg>
