<svg width="24" height="24" viewBox="0 0 24 24" fill="none" xmlns="http://www.w3.org/2000/svg">
<path fill-rule="evenodd" clip-rule="evenodd" d="M17 13H19L23 17V21C23 22.1046 22.1046 23 21 23H17C15.8954 23 15 22.1046 15 21V15C15 13.8954 15.8954 13 17 13ZM21 17H19V15H17V21H21V17Z" fill="#1976D2"/>
<path d="M18 11V10H6V20H13V22H6C4.90002 22 4 21.1 4 20V10C4 8.90002 4.90002 8 6 8H15V6C15 4.30005 13.7 3 12 3C10.3 3 9 4.30005 9 6H7C7 3.19995 9.20001 1 12 1C14.8 1 17 3.19995 17 6V8H18C19.1 8 20 8.90002 20 10V11H18Z" fill="#526069"/>
<path d="M10 15C10 16.1 10.9 17 12 17C13.1 17 14 16.1 14 15C14 13.9 13.1 13 12 13C10.9 13 10 13.9 10 15Z" fill="#526069"/>
</svg>
