<svg width="24" height="24" viewBox="0 0 24 24" fill="none" xmlns="http://www.w3.org/2000/svg">
<path d="M22 16H16V18H22V16Z" fill="#1976D2"/>
<path d="M19 20H16V22H19V20Z" fill="#1976D2"/>
<path fill-rule="evenodd" clip-rule="evenodd" d="M14.37 18L14.69 15H17V13H14.9L15.1 11H17V9H15.31L15.63 6H13.63L13.31 9H11.31L11.63 6H9.63L9.31 9H7V11H9.1L8.9 13H7V15H8.69L8.37 18H10.37L10.69 15H12.69L12.37 18H14.37ZM10.9 13L11.1 11H13.1L12.9 13H10.9Z" fill="#526069"/>
<path d="M14 19H5V5H19V14H21V5C21 4.46957 20.7893 3.96086 20.4142 3.58579C20.0391 3.21071 19.5304 3 19 3H5C4.46957 3 3.96086 3.21071 3.58579 3.58579C3.21071 3.96086 3 4.46957 3 5V19C3 19.5304 3.21071 20.0391 3.58579 20.4142C3.96086 20.7893 4.46957 21 5 21H14V19Z" fill="#526069"/>
</svg>
