<svg width="24" height="24" viewBox="0 0 24 24" fill="none" xmlns="http://www.w3.org/2000/svg">
<path d="M14 2H6C4.9 2 4.01 2.9 4.01 4L4 20C4 21.1 4.89 22 5.99 22H16V20H6V4H13V9H18V10H20V8L14 2Z" fill="#526069"/>
<path d="M20 15C20 15.2503 19.908 15.4791 19.7561 15.6545C19.5412 15.9025 19.2838 16.1123 19.0332 16.3166C18.5014 16.7501 18 17.1587 18 17.8552V19H20V18.5365C20 18.1127 20.2774 17.7481 20.6328 17.5172C21.4558 16.9822 22 16.0547 22 15C22 13.3431 20.6569 12 19 12C17.3431 12 16 13.3431 16 15H18C18 14.4477 18.4477 14 19 14C19.5523 14 20 14.4477 20 15Z" fill="#1976D2"/>
<path d="M19 22C19.5523 22 20 21.5523 20 21C20 20.4477 19.5523 20 19 20C18.4477 20 18 20.4477 18 21C18 21.5523 18.4477 22 19 22Z" fill="#1976D2"/>
</svg>
